<svg width="149" height="50" viewBox="0 0 149 50" fill="none" xmlns="http://www.w3.org/2000/svg"><path d="M26.562 34.19h.067c1.076 0 1.748-1.217 1.143-2.095l-5.38-8.31 4.64-5.068c.74-.81.202-2.162-.94-2.162-.337 0-.673.136-.942.406l-7.666 8.378v-7.5a1.28 1.28 0 00-1.277-1.284h-.27a1.28 1.28 0 00-1.277 1.284V32.77c0 .743.605 1.351 1.345 1.351h.134c.74 0 1.345-.608 1.345-1.35v-4.054l2.824-3.04 5.11 7.837c.27.405.673.675 1.144.675zm6.993-16.35v14.93c0 .743-.605 1.351-1.344 1.351h-.135c-.74 0-1.345-.608-1.345-1.35V17.838a1.28 1.28 0 011.278-1.284h.269c.74 0 1.277.608 1.277 1.284zm15.532 16.35h.068c1.076 0 1.748-1.217 1.143-2.095l-5.38-8.31 4.64-5.068c.74-.81.202-2.162-.941-2.162-.336 0-.673.136-.942.406l-7.665 8.378v-7.5a1.28 1.28 0 00-1.278-1.284h-.269a1.28 1.28 0 00-1.277 1.284V32.77c0 .743.605 1.351 1.345 1.351h.134c.74 0 1.345-.608 1.345-1.35v-4.054l2.824-3.04 5.11 7.837c.27.405.673.675 1.143.675zm18.023-1.893l-5.581-14.93a1.328 1.328 0 00-1.21-.812h-1.614c-.538 0-1.009.338-1.21.811l-5.582 14.931c-.336.879.336 1.825 1.278 1.825.605 0 1.076-.338 1.277-.879l1.345-3.716h7.397l1.345 3.716c.201.54.74.878 1.277.878h.068c.874.068 1.546-.878 1.21-1.824zM56.62 27.23l2.555-7.161c.068-.27.471-.27.538 0l2.555 7.161H56.62z" fill="#27278F"/><path d="M35.167 50c-.202 0-.47-.068-.672-.203-.47-.27-.74-.744-.74-1.216V42.5H25.62c-.74 0-1.412-.608-1.412-1.419 0-.81.605-1.419 1.412-1.419h9.548c.74 0 1.412.608 1.412 1.42v4.931l9.481-6.08a1.35 1.35 0 01.74-.203h13.986c7.935 0 14.457-6.486 14.457-14.526 0-3.919-1.479-7.567-4.236-10.27-2.69-2.77-6.32-4.256-10.22-4.256h-2.22c-.74 0-1.412-.608-1.412-1.419 0-.81.606-1.418 1.413-1.418h2.218c4.64 0 8.944 1.824 12.171 5.067A17.208 17.208 0 0178 25.136c0 9.527-7.732 17.296-17.214 17.296H47.204l-11.297 7.365a1.35 1.35 0 01-.74.202z" fill="#CC3100"/><path d="M55.61 12.838C51.775 4.933 43.975 0 35.234 0a22.442 22.442 0 00-17.08 7.837h-.874C7.733 7.838 0 15.675 0 25.2c0 4.662 1.816 8.986 5.043 12.23a17.16 17.16 0 0012.171 5.066h1.21c.74 0 1.412-.608 1.412-1.419 0-.81-.605-1.418-1.412-1.418h-1.21c-3.9 0-7.464-1.487-10.22-4.257-2.758-2.702-4.237-6.35-4.237-10.27 0-8.04 6.455-14.525 14.457-14.525h9.616c.74 0 1.412-.608 1.412-1.419 0-.81-.605-1.419-1.412-1.419h-4.842c3.631-3.175 8.27-5 13.247-5 7.665 0 14.524 4.325 17.886 11.284.27.473.74.81 1.278.81.201 0 .403-.067.605-.135.672-.338.941-1.216.605-1.891z" fill="url(#paint0_radial_302_46)"/><path d="M93.177 18.84c-.153.512-.393.94-.72 1.284-.328.344-.716.6-1.164.768-.449.168-.94.252-1.477.252-.784 0-1.463-.164-2.04-.492a3.343 3.343 0 01-1.32-1.404c-.303-.608-.456-1.336-.456-2.184 0-.848.153-1.576.457-2.184a3.343 3.343 0 011.32-1.404c.576-.328 1.248-.492 2.016-.492a4.5 4.5 0 011.475.228c.44.144.813.372 1.117.684.311.304.54.684.683 1.14l-1.5.636c-.135-.48-.343-.82-.623-1.02-.28-.208-.64-.312-1.08-.312a2.08 2.08 0 00-1.14.312c-.32.208-.569.516-.744.924-.176.4-.264.896-.264 1.488 0 .584.08 1.08.24 1.488.168.408.412.716.732.924.32.208.712.312 1.176.312.431 0 .803-.116 1.116-.348.32-.232.544-.584.672-1.056l1.523.456zm2.911-6.444v8.628h-1.644v-8.628h1.644zm4.478 2.508c.608 0 1.14.124 1.596.372a2.62 2.62 0 011.08 1.068c.264.464.396 1.024.396 1.68 0 .648-.132 1.208-.396 1.68a2.62 2.62 0 01-1.08 1.068c-.456.248-.988.372-1.596.372-.6 0-1.132-.124-1.596-.372a2.698 2.698 0 01-1.092-1.068c-.256-.472-.384-1.032-.384-1.68 0-.656.128-1.216.384-1.68.264-.464.628-.82 1.092-1.068.464-.248.996-.372 1.596-.372zm0 1.224c-.304 0-.564.072-.78.216-.208.136-.368.344-.48.624-.112.28-.168.632-.168 1.056 0 .424.056.776.168 1.056.112.28.272.492.48.636.216.136.476.204.78.204.296 0 .548-.068.756-.204.216-.144.38-.356.492-.636.112-.28.168-.632.168-1.056 0-.424-.056-.776-.168-1.056a1.262 1.262 0 00-.492-.624 1.295 1.295 0 00-.756-.216zm6.536 5.016c-.4 0-.76-.072-1.08-.216a1.713 1.713 0 01-.768-.684c-.184-.32-.276-.732-.276-1.236v-3.984h1.644v3.588c0 .464.096.788.288.972.192.176.468.264.828.264.168 0 .332-.028.492-.084.16-.064.3-.16.42-.288.128-.128.228-.292.3-.492a2.24 2.24 0 00.108-.732v-3.228h1.644v6h-1.464l-.06-1.044c-.2.4-.476.696-.828.888-.344.184-.76.276-1.248.276zm7.598 0c-.496 0-.94-.124-1.332-.372-.384-.248-.688-.604-.912-1.068-.216-.464-.324-1.02-.324-1.668 0-.664.116-1.228.348-1.692.232-.472.544-.828.936-1.068.4-.248.848-.372 1.344-.372.528 0 .964.152 1.308.456.344.304.568.696.672 1.176l-.156.192v-4.332h1.644v8.628h-1.476l-.108-1.824.192.096a2.126 2.126 0 01-.372.984c-.2.272-.452.484-.756.636-.304.152-.64.228-1.008.228zm.48-1.26c.288 0 .536-.072.744-.216.208-.152.368-.372.48-.66.12-.288.18-.632.18-1.032 0-.384-.056-.708-.168-.972a1.367 1.367 0 00-.48-.624 1.254 1.254 0 00-.732-.216c-.448 0-.8.16-1.056.48-.248.312-.372.772-.372 1.38 0 .608.124 1.072.372 1.392.248.312.592.468 1.032.468zM93.177 32.84c-.153.512-.393.94-.72 1.284-.328.344-.716.6-1.164.768-.449.168-.94.252-1.477.252-.784 0-1.463-.164-2.04-.492a3.343 3.343 0 01-1.32-1.404c-.303-.608-.456-1.336-.456-2.184 0-.848.153-1.576.457-2.184a3.343 3.343 0 011.32-1.404c.576-.328 1.248-.492 2.016-.492a4.5 4.5 0 011.475.228c.44.144.813.372 1.117.684.311.304.54.684.683 1.14l-1.5.636c-.135-.48-.343-.82-.623-1.02-.28-.208-.64-.312-1.08-.312a2.08 2.08 0 00-1.14.312c-.32.208-.569.516-.744.924-.176.4-.264.896-.264 1.488 0 .584.08 1.08.24 1.488.168.408.412.716.732.924.32.208.712.312 1.176.312.431 0 .803-.116 1.116-.348.32-.232.544-.584.672-1.056l1.523.456zm3.979-3.936c.608 0 1.14.124 1.596.372a2.62 2.62 0 011.08 1.068c.264.464.396 1.024.396 1.68 0 .648-.132 1.208-.396 1.68a2.62 2.62 0 01-1.08 1.068c-.456.248-.988.372-1.596.372-.6 0-1.132-.124-1.596-.372a2.698 2.698 0 01-1.092-1.068c-.256-.472-.384-1.032-.384-1.68 0-.656.128-1.216.384-1.68.264-.464.628-.82 1.092-1.068.464-.248.996-.372 1.596-.372zm0 1.224c-.304 0-.564.072-.78.216-.208.136-.368.344-.48.624-.112.28-.168.632-.168 1.056 0 .424.056.776.168 1.056.112.28.272.492.48.636.216.136.476.204.78.204.296 0 .548-.068.756-.204.216-.144.38-.356.492-.636.112-.28.168-.632.168-1.056 0-.424-.056-.776-.168-1.056a1.262 1.262 0 00-.492-.624 1.295 1.295 0 00-.756-.216zm4.447 4.896v-6h1.476l.096 1.8-.204-.192c.096-.392.248-.712.456-.96a1.97 1.97 0 01.756-.576 2.54 2.54 0 01.996-.192c.416 0 .784.08 1.104.24.328.16.584.404.768.732.192.32.288.724.288 1.212v3.936h-1.644v-3.468c0-.512-.1-.864-.3-1.056-.2-.2-.46-.3-.78-.3a1.42 1.42 0 00-.66.168c-.208.104-.38.276-.516.516-.128.24-.192.56-.192.96v3.18h-1.644zm9.83.12a4.191 4.191 0 01-1.668-.324c-.496-.216-.9-.52-1.212-.912l.948-.96c.192.288.448.524.768.708.32.184.7.276 1.14.276.312 0 .56-.044.744-.132.192-.096.288-.244.288-.444a.44.44 0 00-.132-.324c-.088-.096-.264-.172-.528-.228l-1.056-.216c-.696-.144-1.192-.36-1.488-.648-.288-.296-.432-.676-.432-1.14 0-.328.096-.636.288-.924.2-.288.496-.52.888-.696.392-.184.88-.276 1.464-.276.6 0 1.12.096 1.56.288.448.184.8.46 1.056.828l-.984.96a1.717 1.717 0 00-.696-.636 1.835 1.835 0 00-.888-.228 2.02 2.02 0 00-.576.072.777.777 0 00-.36.204.422.422 0 00-.12.312c0 .128.056.24.168.336.112.088.316.164.612.228l1.224.252c.592.12 1.016.324 1.272.612.256.28.384.62.384 1.02 0 .384-.104.728-.312 1.032-.2.296-.5.532-.9.708-.392.168-.876.252-1.452.252zm6.063 0c-.4 0-.76-.072-1.08-.216a1.713 1.713 0 01-.768-.684c-.184-.32-.276-.732-.276-1.236v-3.984h1.644v3.588c0 .464.096.788.288.972.192.176.468.264.828.264.168 0 .332-.028.492-.084.16-.064.3-.16.42-.288.128-.128.228-.292.3-.492a2.24 2.24 0 00.108-.732v-3.228h1.644v6h-1.464l-.06-1.044c-.2.4-.476.696-.828.888-.344.184-.76.276-1.248.276zm6.998-8.748v8.628h-1.644v-8.628h1.644zm3.866.792v5.88c0 .288.072.5.216.636.152.128.356.192.612.192.208 0 .384-.028.528-.084.152-.064.288-.148.408-.252l.264 1.092a2.169 2.169 0 01-.72.36 3.104 3.104 0 01-.912.132c-.4 0-.756-.06-1.068-.18a1.509 1.509 0 01-.72-.576c-.168-.264-.252-.616-.252-1.056v-5.688l1.644-.456zm1.92 1.836v1.224h-4.668v-1.224h4.668zm1.941-.864c-.344 0-.6-.072-.768-.216-.168-.152-.252-.372-.252-.66 0-.296.084-.516.252-.66.168-.152.424-.228.768-.228.344 0 .6.076.768.228.168.144.252.364.252.66 0 .288-.084.508-.252.66-.168.144-.424.216-.768.216zm.816.864v6h-1.644v-6h1.644zm1.742 6v-6h1.476l.096 1.8-.204-.192c.096-.392.248-.712.456-.96a1.97 1.97 0 01.756-.576 2.54 2.54 0 01.996-.192c.416 0 .784.08 1.104.24.328.16.584.404.768.732.192.32.288.724.288 1.212v3.936h-1.644v-3.468c0-.512-.1-.864-.3-1.056-.2-.2-.46-.3-.78-.3a1.42 1.42 0 00-.66.168c-.208.104-.38.276-.516.516-.128.24-.192.56-.192.96v3.18h-1.644zm10.094 2.58c-.488 0-.94-.064-1.356-.192a2.228 2.228 0 01-1.044-.636c-.28-.296-.46-.696-.54-1.2l1.596-.264c.056.384.204.672.444.864.24.2.584.3 1.032.3.448 0 .788-.14 1.02-.42.232-.272.348-.644.348-1.116v-1.056a2.072 2.072 0 01-.744.744c-.32.192-.696.288-1.128.288-.512 0-.964-.116-1.356-.348a2.421 2.421 0 01-.9-1.032c-.216-.448-.324-.984-.324-1.608 0-.64.116-1.184.348-1.632a2.67 2.67 0 01.936-1.032c.392-.24.82-.36 1.284-.36.52 0 .944.12 1.272.36.336.232.58.54.732.924l.06-1.164h1.464v5.52c0 .72-.124 1.304-.372 1.752a2.23 2.23 0 01-1.08.984c-.464.216-1.028.324-1.692.324zm.108-3.936c.424 0 .76-.148 1.008-.444.256-.296.384-.736.384-1.32 0-.568-.124-1-.372-1.296-.248-.296-.588-.444-1.02-.444-.296 0-.548.072-.756.216a1.384 1.384 0 00-.48.6c-.112.256-.168.568-.168.936 0 .568.124 1.004.372 1.308.248.296.592.444 1.032.444z" fill="#000040"/><defs><radialGradient id="paint0_radial_302_46" cx="0" cy="0" r="1" gradientUnits="userSpaceOnUse" gradientTransform="matrix(48.0718 0 0 48.3562 57.977 2.07)"><stop stop-color="#00C8C8"/><stop offset="1" stop-color="#000095"/></radialGradient></defs></svg>